<svg width="16" height="13" viewBox="0 0 16 13" fill="none" xmlns="http://www.w3.org/2000/svg">
<path d="M15.2751 5.55686L10.0883 0.370088C9.77182 0.0536293 9.25859 0.0536293 8.94213 0.370088C8.62561 0.686611 8.62561 1.19971 8.94213 1.51624L12.7454 5.3195L1.32289 5.3195C0.875331 5.3195 0.512451 5.68238 0.512451 6.12994C0.512451 6.57743 0.875331 6.94037 1.32289 6.94037L12.7454 6.94037L8.94226 10.7436C8.62574 11.0602 8.62574 11.5733 8.94226 11.8898C9.10046 12.0479 9.30793 12.1272 9.51534 12.1272C9.72274 12.1272 9.93015 12.0479 10.0884 11.8898L15.2751 6.70301C15.5916 6.38649 15.5916 5.87339 15.2751 5.55686Z" fill="white"/>
</svg>
