<svg width="13" height="13" viewBox="0 0 13 13" fill="none" xmlns="http://www.w3.org/2000/svg">
<path d="M9.58594 5.53472C9.52519 5.40047 9.39169 5.31497 9.24469 5.31497H7.74469V0.439972C7.74469 0.232972 7.57669 0.0649719 7.36969 0.0649719H5.86969C5.66269 0.0649719 5.49469 0.232972 5.49469 0.439972V5.31497H3.99469C3.84769 5.31497 3.71419 5.40122 3.65344 5.53472C3.59194 5.66897 3.61594 5.82572 3.71269 5.93672L6.33769 8.93672C6.40894 9.01847 6.51169 9.06497 6.61969 9.06497C6.72769 9.06497 6.83044 9.01772 6.90169 8.93672L9.52669 5.93672C9.62419 5.82647 9.64669 5.66897 9.58594 5.53472Z" fill="white"/>
<path d="M10.7447 8.31497V10.565H2.49469V8.31497H0.99469V11.315C0.99469 11.7297 1.33069 12.065 1.74469 12.065H11.4947C11.9094 12.065 12.2447 11.7297 12.2447 11.315V8.31497H10.7447Z" fill="white"/>
</svg>
