<svg width="17" height="13" viewBox="0 0 17 13" fill="none" xmlns="http://www.w3.org/2000/svg">
<path d="M1.13185 1.0386C3.32779 2.89832 7.18098 6.17013 8.31348 7.19028C8.46551 7.32797 8.62857 7.39797 8.79785 7.39797C8.96679 7.39797 9.12957 7.32863 9.28126 7.1916C10.4147 6.17044 14.2679 2.89832 16.4639 1.0386C16.6006 0.923034 16.6214 0.719909 16.5108 0.578628C16.2549 0.252159 15.8734 0.0649719 15.4645 0.0649719H2.1312C1.72235 0.0649719 1.34082 0.25216 1.08498 0.57866C0.97429 0.71991 0.995133 0.923034 1.13185 1.0386Z" fill="white"/>
<path d="M16.6045 2.04641C16.4864 1.99141 16.3474 2.0106 16.249 2.0946C13.8138 4.15903 10.7057 6.80522 9.72785 7.68638C9.17901 8.18182 8.41729 8.18182 7.86716 7.68572C6.82485 6.7466 3.3346 3.77947 1.34666 2.09457C1.2477 2.01057 1.10838 1.99203 0.991195 2.04638C0.873383 2.1011 0.797852 2.21894 0.797852 2.34882V10.7316C0.797852 11.467 1.39582 12.065 2.1312 12.065H15.4645C16.1999 12.065 16.7979 11.467 16.7979 10.7316V2.34882C16.7979 2.21894 16.7223 2.10078 16.6045 2.04641Z" fill="white"/>
</svg>
