<svg width="13" height="13" viewBox="0 0 13 13" fill="none" xmlns="http://www.w3.org/2000/svg">
<path d="M2.83107 3.92077H0.416735C0.309583 3.92077 0.222759 4.00763 0.222759 4.11475V11.871C0.222759 11.9781 0.309583 12.0649 0.416735 12.0649H2.83107C2.93822 12.0649 3.02504 11.9781 3.02504 11.871V4.11475C3.02504 4.00763 2.93822 3.92077 2.83107 3.92077Z" fill="white"/>
<path d="M1.62477 0.0649719C0.746298 0.0649719 0.0316162 0.778878 0.0316162 1.65638C0.0316162 2.53428 0.746298 3.24845 1.62477 3.24845C2.50255 3.24845 3.21665 2.53424 3.21665 1.65638C3.21669 0.778878 2.50255 0.0649719 1.62477 0.0649719Z" fill="white"/>
<path d="M8.97208 3.728C8.0024 3.728 7.28559 4.14485 6.85081 4.6185V4.11475C6.85081 4.00763 6.76399 3.92077 6.65684 3.92077H4.34469C4.23754 3.92077 4.15072 4.00763 4.15072 4.11475V11.871C4.15072 11.9781 4.23754 12.0649 4.34469 12.0649H6.75375C6.8609 12.0649 6.94772 11.9781 6.94772 11.871V8.03343C6.94772 6.74028 7.29897 6.23648 8.20041 6.23648C9.18216 6.23648 9.26018 7.04412 9.26018 8.09997V11.871C9.26018 11.9781 9.347 12.065 9.45415 12.065H11.8641C11.9713 12.065 12.0581 11.9781 12.0581 11.871V7.61658C12.0581 5.6937 11.6914 3.728 8.97208 3.728Z" fill="white"/>
</svg>
