<svg width="13" height="13" viewBox="0 0 13 13" fill="none" xmlns="http://www.w3.org/2000/svg">
<path d="M12.3535 7.55251C12.3496 6.66018 12.3468 6.01538 11.9079 5.44813C11.4107 4.80596 10.6438 4.69714 10.0222 4.67862C10.1269 4.22996 10.1571 3.7325 10.1087 3.19478C10.0955 1.40398 8.76297 0.116756 6.91364 0.0657224L6.88699 0.0649719L4.05839 0.0672234L4.02799 0.0670983C2.92789 0.0670983 2.05832 0.395564 1.4433 1.04324C1.06267 1.44388 0.557089 2.14371 0.503553 3.27533L0.501302 7.83832C0.495798 7.92451 0.504429 8.01156 0.503303 8.101C0.503303 9.39922 0.711065 10.3337 1.35987 11.0243C2.00817 11.7149 2.9668 12.065 4.20874 12.065C4.23563 12.065 4.26277 12.0648 4.28991 12.0645H8.62138C9.72936 12.0552 10.6656 11.6895 11.3289 11.0069C11.991 10.3256 12.3475 9.35482 12.3596 8.19994C12.3596 8.19994 12.3542 7.73501 12.3535 7.55251ZM4.28779 2.49869L6.70462 2.49582C7.27425 2.50482 7.7288 3.01503 7.71954 3.58466C7.71053 4.14865 7.25061 4.56017 6.68861 4.56017C6.68311 4.56017 4.25514 4.56117 4.25514 4.56117C3.68552 4.55204 3.23122 4.08298 3.24035 3.51361C3.24936 2.94399 3.71741 2.49319 4.28779 2.49869ZM8.83052 9.28752H3.99697C3.42747 9.28752 2.96554 8.82585 2.96554 8.2561C2.96554 7.68647 3.42747 7.22467 3.99697 7.22467H8.83064C9.40039 7.22467 9.86207 7.68647 9.86207 8.2561C9.86207 8.82585 9.40027 9.28752 8.83052 9.28752Z" fill="white"/>
</svg>
