<svg width="13" height="13" viewBox="0 0 13 13" fill="none" xmlns="http://www.w3.org/2000/svg">
<path d="M5.79596 7.09601C4.65057 5.95062 4.39195 4.80523 4.3336 4.34633C4.3173 4.21944 4.36096 4.09219 4.45174 4.00205L5.37865 3.07556C5.51499 2.93929 5.53919 2.72693 5.43699 2.56348L3.96118 0.271871C3.84812 0.0908865 3.61596 0.0255673 3.42511 0.121042L1.05591 1.23685C0.901577 1.31284 0.8108 1.47682 0.828323 1.64795C0.952462 2.82728 1.4666 5.72634 4.3156 8.57554C7.1646 11.4247 10.0632 11.9387 11.2432 12.0628C11.4143 12.0803 11.5783 11.9896 11.6543 11.8352L12.7701 9.46604C12.8652 9.2756 12.8003 9.04406 12.6201 8.93079L10.3285 7.45539C10.1651 7.35309 9.95278 7.37711 9.81642 7.51333L8.88992 8.44023C8.79978 8.53101 8.67253 8.57467 8.54564 8.55837C8.08674 8.50003 6.94135 8.2414 5.79596 7.09601Z" fill="white"/>
<path d="M10.3442 6.47883C10.1157 6.47883 9.93042 6.29357 9.93042 6.06504C9.92848 4.35183 8.54014 2.96349 6.82694 2.96155C6.5984 2.96155 6.41314 2.77629 6.41314 2.54776C6.41314 2.31922 6.5984 2.13396 6.82694 2.13396C8.99702 2.13635 10.7556 3.89495 10.758 6.06504C10.758 6.29357 10.5727 6.47883 10.3442 6.47883Z" fill="white"/>
<path d="M12.4132 6.47883C12.1847 6.47883 11.9994 6.29357 11.9994 6.06503C11.9962 3.20968 9.68229 0.895759 6.82694 0.892567C6.5984 0.892567 6.41314 0.707303 6.41314 0.478769C6.41314 0.250235 6.5984 0.0649719 6.82694 0.0649719C10.1392 0.0686208 12.8233 2.7528 12.827 6.06503C12.827 6.17478 12.7834 6.28003 12.7058 6.35763C12.6282 6.43524 12.5229 6.47883 12.4132 6.47883Z" fill="white"/>
</svg>
