<svg width="13" height="13" viewBox="0 0 13 13" fill="none" xmlns="http://www.w3.org/2000/svg">
<path d="M6.22526 0.0649719H6.22225C2.91401 0.0649719 0.223755 2.75597 0.223755 6.06497C0.223755 7.37747 0.646755 8.59397 1.366 9.58172L0.618255 11.8107L2.9245 11.0735C3.87326 11.702 5.005 12.065 6.22526 12.065C9.5335 12.065 12.2238 9.37322 12.2238 6.06497C12.2238 2.75672 9.5335 0.0649719 6.22526 0.0649719ZM9.71651 8.53772C9.57175 8.94647 8.99725 9.28547 8.53901 9.38447C8.2255 9.45122 7.816 9.50447 6.4375 8.93297C4.67425 8.20247 3.53875 6.41072 3.45025 6.29447C3.3655 6.17822 2.73775 5.34572 2.73775 4.48472C2.73775 3.62372 3.175 3.20447 3.35125 3.02447C3.49601 2.87672 3.73525 2.80922 3.96475 2.80922C4.039 2.80922 4.10575 2.81297 4.16575 2.81597C4.342 2.82347 4.4305 2.83397 4.54675 3.11222C4.6915 3.46097 5.044 4.32197 5.086 4.41047C5.12875 4.49897 5.1715 4.61897 5.11151 4.73522C5.05525 4.85522 5.00575 4.90847 4.91725 5.01047C4.82875 5.11247 4.74475 5.19047 4.65625 5.29997C4.57525 5.39522 4.48375 5.49722 4.58575 5.67347C4.68776 5.84597 5.04025 6.42122 5.55925 6.88322C6.229 7.47947 6.772 7.66997 6.96625 7.75097C7.111 7.81097 7.2835 7.79672 7.38925 7.68422C7.5235 7.53947 7.68925 7.29947 7.858 7.06322C7.978 6.89372 8.12951 6.87272 8.28851 6.93272C8.45051 6.98897 9.30775 7.41272 9.484 7.50047C9.66026 7.58897 9.7765 7.63097 9.81925 7.70522C9.86125 7.77947 9.86125 8.12822 9.71651 8.53772Z" fill="white"/>
</svg>
