<svg width="19" height="19" viewBox="0 0 19 19" fill="none" xmlns="http://www.w3.org/2000/svg">
<path d="M11.1684 9.52583L17.8988 2.79515C18.0839 2.60987 18.1861 2.36268 18.1864 2.09911C18.1864 1.83538 18.0842 1.5879 17.8988 1.40291L17.309 0.813266C17.1235 0.627547 16.8764 0.525833 16.6125 0.525833C16.3491 0.525833 16.1019 0.627547 15.9164 0.813266L9.18606 7.54351L2.45538 0.813266C2.27024 0.627547 2.02291 0.525833 1.75919 0.525833C1.49575 0.525833 1.24842 0.627547 1.06329 0.813266L0.473199 1.40291C0.0891744 1.78694 0.0891744 2.41157 0.473199 2.79515L7.20373 9.52583L0.473199 16.2562C0.287919 16.4418 0.185912 16.689 0.185912 16.9526C0.185912 17.2161 0.287919 17.4633 0.473199 17.6488L1.06314 18.2384C1.24827 18.424 1.49575 18.5258 1.75904 18.5258C2.02276 18.5258 2.2701 18.424 2.45523 18.2384L9.18591 11.508L15.9163 18.2384C16.1017 18.424 16.3489 18.5258 16.6123 18.5258H16.6126C16.8762 18.5258 17.1234 18.424 17.3088 18.2384L17.8986 17.6488C18.0838 17.4635 18.1859 17.2161 18.1859 16.9526C18.1859 16.689 18.0838 16.4418 17.8986 16.2564L11.1684 9.52583Z" fill="white"/>
</svg>
