<svg width="16" height="13" viewBox="0 0 16 13" fill="none" xmlns="http://www.w3.org/2000/svg">
<path d="M5.08739 12.0649C10.6595 12.0649 13.7067 7.44855 13.7067 3.4456C13.7067 3.31448 13.704 3.18392 13.6981 3.05407C14.2895 2.62642 14.8036 2.09277 15.2092 1.48534C14.6664 1.7267 14.0822 1.88897 13.4696 1.96238C14.095 1.5872 14.5752 0.993946 14.8016 0.286741C14.2163 0.633752 13.5681 0.885861 12.878 1.02203C12.3252 0.433202 11.5381 0.0649719 10.6667 0.0649719C8.99381 0.0649719 7.6371 1.42159 7.6371 3.09389C7.6371 3.33173 7.66374 3.56289 7.71566 3.78466C5.19792 3.65797 2.96524 2.4526 1.47127 0.619575C1.21122 1.06718 1.06115 1.58729 1.06115 2.14225C1.06115 3.19313 1.59597 4.12111 2.40919 4.66379C1.91219 4.64853 1.44536 4.51209 1.03722 4.285C1.03677 4.29773 1.03677 4.3101 1.03677 4.32364C1.03677 5.79079 2.08096 7.01575 3.46729 7.29332C3.21265 7.36258 2.94474 7.39988 2.66843 7.39988C2.47357 7.39988 2.28358 7.38073 2.09902 7.34525C2.48468 8.5489 3.60309 9.42478 4.92901 9.44934C3.89213 10.262 2.58599 10.7461 1.16643 10.7461C0.92227 10.7461 0.680906 10.7321 0.443787 10.7041C1.78451 11.5635 3.37654 12.065 5.08748 12.065" fill="white"/>
</svg>
