<svg width="8" height="13" viewBox="0 0 8 13" fill="none" xmlns="http://www.w3.org/2000/svg">
<path d="M7.134 0.0674687L5.57787 0.0649719C3.82961 0.0649719 2.69981 1.22411 2.69981 3.01819V4.37982H1.13519C0.999988 4.37982 0.890503 4.48943 0.890503 4.62463V6.59748C0.890503 6.73268 1.00011 6.84216 1.13519 6.84216H2.69981V11.8203C2.69981 11.9555 2.80929 12.065 2.9445 12.065H4.98588C5.12108 12.065 5.23057 11.9554 5.23057 11.8203V6.84216H7.05997C7.19518 6.84216 7.30466 6.73268 7.30466 6.59748L7.30541 4.62463C7.30541 4.55971 7.27957 4.49754 7.23375 4.4516C7.18793 4.40566 7.12551 4.37982 7.0606 4.37982H5.23057V3.22555C5.23057 2.67076 5.36277 2.38912 6.08547 2.38912L7.13375 2.38874C7.26883 2.38874 7.37831 2.27913 7.37831 2.14406V0.312155C7.37831 0.177203 7.26895 0.0677184 7.134 0.0674687Z" fill="white"/>
</svg>
